<svg height="512pt" viewBox="0 0 512.00009 512" width="512pt" xmlns="http://www.w3.org/2000/svg"><path d="m415.960938 63.914062h-373.964844c-17.671875 0-31.996094 14.324219-31.996094 31.996094v373.964844c0 17.671875 14.324219 31.996094 31.996094 31.996094h296.367187l109.59375-109.589844v-296.371094c0-17.671875-14.328125-31.996094-31.996093-31.996094zm0 0" fill="#fff"/><path d="m204.242188 291.765625c-2.636719-3.050781-5.621094-5.742187-8.878907-8-12.941406 8.953125-21.539062 24.738281-21.539062 42.726563 0 24.636718 31.660156 55.273437 55.082031 74.570312 23.425781-19.296875 55.085938-49.933594 55.085938-74.570312 0-27.910157-20.683594-50.535157-46.195313-50.535157-13.214844 0-25.132813 6.074219-33.554687 15.808594zm0 0" fill="#ff5d5d"/><path d="m338.363281 501.871094 109.59375-109.589844h-77.59375c-17.671875 0-32 14.324219-32 31.996094zm0 0" fill="#ffb954"/><path d="m325.84375 152.140625c-18.398438 18.394531-19.652344 48.445313-5.398438 74.433594 25.988282 14.253906 56.039063 13 74.433594-5.398438 14.644532-14.644531 18.433594-36.679687 12.175782-58.167969l-23.101563-23.058593c-21.46875-6.234375-43.476563-2.441407-58.109375 12.191406zm0 0" fill="#ff5d5d"/><path d="m486.917969 129.136719c18.761719-18.761719 19.6875-49.648438 4.515625-75.980469-26.328125-15.171875-57.21875-14.246094-75.980469 4.515625-18.761719 18.765625-19.6875 49.652344-4.515625 75.980469 26.332031 15.171875 57.214844 14.25 75.980469-4.515625zm0 0" fill="#ff5d5d"/><path d="m425.257812 141.222656-27.878906 27.882813c-15.070312 15.070312-39.503906 15.070312-54.570312 0-15.070313-15.070313-15.070313-39.503907 0-54.570313l27.878906-27.878906zm0 0" fill="#fff"/><path d="m397.378906 169.105469 27.878906-27.882813-28.914062-28.914062-27.878906 27.882812c-10.433594 10.429688-13.636719 25.347656-9.628906 38.539063 13.195312 4.011719 28.109374.804687 38.542968-9.625zm0 0" fill="#ffb9b7"/><path d="m193.492188 121.898438c2.636718 0 5.207031-1.070313 7.066406-2.929688 1.871094-1.859375 2.929687-4.441406 2.929687-7.070312 0-2.628907-1.058593-5.207032-2.929687-7.070313-1.847656-1.859375-4.429688-2.929687-7.066406-2.929687-2.628907 0-5.210938 1.070312-7.070313 2.929687-1.859375 1.863281-2.929687 4.441406-2.929687 7.070313 0 2.628906 1.070312 5.210937 2.929687 7.070312s4.441406 2.929688 7.070313 2.929688zm0 0"/><path d="m511.589844 82.890625c-2.066406-20.121094-11.753906-39.753906-27.28125-55.285156-32.613282-32.609375-81.332032-36.957031-108.605469-9.683594-9.636719 9.640625-15.558594 22.066406-17.382813 35.992187h-316.324218c-23.15625 0-41.996094 18.839844-41.996094 41.996094v373.964844c0 23.15625 18.839844 41.996094 41.996094 41.996094h296.367187c2.652344 0 5.195313-1.054688 7.070313-2.929688l109.59375-109.59375c1.875-1.875 2.929687-4.417968 2.929687-7.070312v-238.753906c13.617188-1.78125 26.214844-7.5 36.03125-17.316407 13.488281-13.488281 19.742188-32.425781 17.601563-53.316406zm-123.78125 131.214844c-9.15625 9.15625-22.34375 13.367187-37.136719 11.847656-15.558594-1.59375-30.894531-9.238281-43.183594-21.527344-12.289062-12.289062-19.933593-27.625-21.527343-43.1875-1.515626-14.789062 2.691406-27.980469 11.847656-37.136719 8.503906-8.503906 20.601562-12.675781 33.914062-12.070312-6.617187 8.484375-10.214844 18.855469-10.214844 29.789062 0 12.976563 5.054688 25.179688 14.230469 34.355469 9.472657 9.472657 21.914063 14.207031 34.355469 14.207031 10.53125 0 21.058594-3.410156 29.789062-10.195312.605469 13.308594-3.5625 25.410156-12.074218 33.917969zm2.5-52.070313c-11.148438 11.144532-29.285156 11.144532-40.429688 0-5.398437-5.402344-8.375-12.582031-8.375-20.214844 0-7.636718 2.972656-14.816406 8.375-20.214843l18.246094-18.246094c4.464844 8.332031 10.261719 16.167969 17.261719 23.167969 7.097656 7.097656 14.964843 12.839844 23.203125 17.226562zm-370.308594 307.839844v-347.976562h132.886719c5.519531 0 9.996093-4.476563 9.996093-10 0-5.523438-4.476562-10-9.996093-10h-132.886719v-5.988282c0-12.128906 9.867188-21.996094 21.996094-21.996094h316.445312c.417969 3.046876 1 6.082032 1.753906 9.089844l-11.453124 11.453125c-24.832032-6.289062-48.980469-.59375-65.078126 15.503907-13.488281 13.492187-19.738281 32.425781-17.597656 53.316406 1.746094 17.035156 8.976563 33.710937 20.570313 47.855468l-16.683594 16.679688c-3.902344 3.90625-3.902344 10.238281 0 14.144531 1.953125 1.953125 4.511719 2.925781 7.070313 2.925781 2.558593 0 5.121093-.972656 7.070312-2.925781l16.683594-16.683593c14.144531 11.59375 30.820312 18.824218 47.855468 20.570312 2.6875.277344 5.34375.414062 7.960938.414062 17.710938 0 33.601562-6.257812 45.355469-18.011718 16.101562-16.105469 21.792969-40.242188 15.503906-65.074219l11.523437-11.527344c2.992188.75 5.988282 1.324219 8.980469 1.734375v228.902344h-67.597656c-23.15625 0-41.996094 18.839844-41.996094 41.996094v67.59375h-286.367187c-12.128906 0-21.996094-9.867188-21.996094-21.996094zm403.816406-67.597656-75.453125 75.453125v-53.453125c0-12.128906 9.871094-21.996094 22-21.996094zm56.03125-280.210938c-8.238281 8.238282-19.441406 12.199219-31.5 12.167969-.128906-.007813-.257812-.019531-.390625-.019531-.128906 0-.253906.011718-.378906.015625-16.242187-.269531-33.957031-7.75-48.050781-21.84375-12.289063-12.289063-19.933594-27.625-21.527344-43.1875-1.519531-14.792969 2.691406-27.980469 11.847656-37.136719 8.203125-8.207031 19.347656-12.183594 31.351563-12.183594 16.492187 0 34.609375 7.503906 48.96875 21.863282 12.285156 12.289062 19.933593 27.625 21.527343 43.1875 1.515626 14.792968-2.691406 27.984374-11.847656 37.136718zm0 0"/><path d="m206.242188 429.8125c-1.960938 0-3.925782-.574219-5.621094-1.726562-.839844-.574219-20.789063-14.195313-41.042969-32.929688-28.585937-26.445312-43.082031-49.546875-43.082031-68.660156 0-33.382813 25.207031-60.539063 56.191406-60.539063 12.132812 0 23.925781 4.28125 33.554688 11.984375 9.628906-7.703125 21.425781-11.984375 33.558593-11.984375 30.980469 0 56.1875 27.15625 56.1875 60.539063 0 19.113281-14.492187 42.214844-43.078125 68.660156-20.253906 18.734375-40.203125 32.355469-41.042968 32.929688-1.699219 1.152343-3.660157 1.726562-5.625 1.726562zm-33.554688-143.855469c-19.957031 0-36.191406 18.183594-36.191406 40.535157 0 23.09375 40.652344 60.246093 69.742187 81.121093 29.09375-20.894531 69.75-58.0625 69.75-81.121093 0-22.351563-16.234375-40.535157-36.191406-40.535157-9.871094 0-19.101563 4.386719-25.992187 12.351563-1.898438 2.195312-4.660157 3.457031-7.5625 3.457031-2.902344 0-5.664063-1.261719-7.5625-3.457031-6.886719-7.964844-16.121094-12.351563-25.992188-12.351563zm0 0"/></svg>